<?xml version='1.0' encoding='iso-8859-1'?>
<!DOCTYPE svg PUBLIC '-//W3C//DTD SVG 1.1//EN' 'http://www.w3.org/Graphics/SVG/1.1/DTD/svg11.dtd'>
<svg version="1.1" xmlns="http://www.w3.org/2000/svg" viewBox="0 0 512 512" xmlns:xlink="http://www.w3.org/1999/xlink" enable-background="new 0 0 512 512">
  <g>
    <path fill="#FFFFFF" d="m496,120h-112c0-8.844-7.164-16-16-16v-16c0-26.469-21.531-48-48-48h-128c-26.469,0-48,21.531-48,48v16c-8.836,0-16,7.156-16,16h-112c-8.836,0-16,7.156-16,16v304c0,8.844 7.164,16 16,16h48c0,8.836 7.163,16 16,16h32c8.837,0 16-7.164 16-16h256c0,8.836 7.163,16 16,16h32c8.837,0 16-7.164 16-16h48c8.836,0 16-7.156 16-16v-304c0-8.844-7.164-16-16-16zm-320-32c0-8.828 7.18-16 16-16h128c8.82,0 16,7.172 16,16v16c-8.836,0-16,7.156-16,16h-128c0-8.844-7.164-16-16-16v-16zm304,336h-448v-272h448v272z"/>
    <path fill="#FFFFFF" d="m128,376c8.836,0 16-7.156 16-16v-144c0-8.844-7.164-16-16-16s-16,7.156-16,16v144c0,8.844 7.164,16 16,16z"/>
    <path fill="#FFFFFF" d="m384,376c8.836,0 16-7.156 16-16v-144c0-8.844-7.164-16-16-16s-16,7.156-16,16v144c0,8.844 7.164,16 16,16z"/>
  </g>
</svg>
