<?xml version="1.0" encoding="iso-8859-1"?>
<!-- Generator: Adobe Illustrator 18.1.1, SVG Export Plug-In . SVG Version: 6.00 Build 0)  -->
<svg version="1.1" id="Capa_1" xmlns="http://www.w3.org/2000/svg" xmlns:xlink="http://www.w3.org/1999/xlink" x="0px" y="0px"
	 viewBox="0 0 43.472 43.472" style="enable-background:new 0 0 43.472 43.472;" xml:space="preserve">
<g>
	<g>
		<path style="fill:#FFFFFF;" d="M42.979,19.203L23.135,8.607c-0.861-0.46-1.896-0.46-2.758,0L0.496,19.224
			c-0.3,0.161-0.49,0.471-0.496,0.811c-0.006,0.34,0.173,0.657,0.467,0.828l7.511,4.364c0,0,0.023,3.63,0.023,3.767
			c0,1.521,6.156,2.764,13.755,2.764c7.598,0,13.759-1.24,13.759-2.764c0-0.137,0.009-3.772,0.009-3.772l3.869-2.379V26.7
			c-0.433,0.177-0.736,0.605-0.736,1.104c0,0.656,0.531,1.189,1.188,1.189c0.661,0,1.191-0.533,1.191-1.189
			c-0.002-0.499-0.304-0.928-0.739-1.104v-4.36l2.691-1.488c0.302-0.166,0.487-0.483,0.484-0.827
			C43.472,19.68,43.281,19.365,42.979,19.203z M21.757,30.707c-6.745,0-12.208-0.771-12.208-1.714c0-0.945,5.464-1.713,12.208-1.713
			c6.743,0,12.209,0.765,12.209,1.713C33.965,29.937,28.498,30.707,21.757,30.707z M35.137,22.742
			c-0.903-0.968-4.165-3.513-13.382-3.513c-9.221,0-12.475,2.545-13.38,3.516v-0.92c0,0,2.639-3.963,13.38-3.963
			s13.382,3.963,13.382,3.963V22.742z"/>
		<path style="fill:#FFFFFF;" d="M38.881,29.238l-0.414,5.588c-0.011,0.148,0.071,0.289,0.207,0.35
			c0.135,0.063,0.294,0.035,0.399-0.071c0.554-0.551,1.038-0.685,1.386-0.681c0.15,0.002,0.295-0.055,0.401-0.161
			c0.106-0.105,0.167-0.25,0.167-0.4v-4.842C40.042,30.061,38.881,29.238,38.881,29.238z"/>
	</g>
</g>
<g>
</g>
<g>
</g>
<g>
</g>
<g>
</g>
<g>
</g>
<g>
</g>
<g>
</g>
<g>
</g>
<g>
</g>
<g>
</g>
<g>
</g>
<g>
</g>
<g>
</g>
<g>
</g>
<g>
</g>
</svg>
